<?xml version="1.0" encoding="iso-8859-1"?>
<!-- Uploaded to: SVG Repo, www.svgrepo.com, Generator: SVG Repo Mixer Tools -->
<svg version="1.1" id="Layer_1" xmlns="http://www.w3.org/2000/svg" xmlns:xlink="http://www.w3.org/1999/xlink" 
	 viewBox="0 0 504 504" xml:space="preserve">
<rect x="24" y="394" style="fill:#EDC654;" width="72" height="76"/>
<rect x="120" y="302" style="fill:#F0B551;" width="72" height="168"/>
<rect x="216" y="166" style="fill:#EF934A;" width="72" height="304"/>
<rect x="312" y="250" style="fill:#E07D46;" width="72" height="220"/>
<rect x="408" y="30" style="fill:#CB5A30;" width="72" height="440"/>
<path d="M500,476H4c-2.4,0-4-1.6-4-4s1.6-4,4-4h496c2.4,0,4,1.6,4,4S502.4,476,500,476z"/>
<path d="M94,476H22c-2.4,0-4-1.6-4-4v-76c0-2.4,1.6-4,4-4h72c2.4,0,4,1.6,4,4v76C98,474.4,96.4,476,94,476z M26,468h64v-68H26V468z"
	/>
<path d="M190,476h-72c-2.4,0-4-1.6-4-4V304c0-2.4,1.6-4,4-4h72c2.4,0,4,1.6,4,4v168C194,474.4,192.4,476,190,476z M122,468h64V308
	h-64V468z"/>
<path d="M286,476h-72c-2.4,0-4-1.6-4-4V168c0-2.4,1.6-4,4-4h72c2.4,0,4,1.6,4,4v304C290,474.4,288.4,476,286,476z M218,468h64V172
	h-64V468z"/>
<path d="M382,476h-72c-2.4,0-4-1.6-4-4V252c0-2.4,1.6-4,4-4h72c2.4,0,4,1.6,4,4v220C386,474.4,384.4,476,382,476z M314,468h64V256
	h-64V468z"/>
<path d="M478,476h-72c-2.4,0-4-1.6-4-4V32c0-2.4,1.6-4,4-4h72c2.4,0,4,1.6,4,4v440C482,474.4,480.4,476,478,476z M410,468h64V36h-64
	V468z"/>
<path d="M422,474c-2.4,0-4-1.6-4-4V46c0-2.4,1.6-4,4-4s4,1.6,4,4v424C426,472.4,424.4,474,422,474z"/>
<path d="M326,474c-2.4,0-4-1.6-4-4V266c0-2.4,1.6-4,4-4s4,1.6,4,4v204C330,472.4,328.4,474,326,474z"/>
<path d="M230,474c-2.4,0-4-1.6-4-4V182c0-2.4,1.6-4,4-4s4,1.6,4,4v288C234,472.4,232.4,474,230,474z"/>
<path d="M134,474c-2.4,0-4-1.6-4-4V318c0-2.4,1.6-4,4-4s4,1.6,4,4v152C138,472.4,136.4,474,134,474z"/>
<path d="M38,474c-2.4,0-4-1.6-4-4v-60c0-2.4,1.6-4,4-4s4,1.6,4,4v60C42,472.4,40.4,474,38,474z"/>
</svg>